<svg width="24" height="24" viewBox="0 0 24 24" fill="none" xmlns="http://www.w3.org/2000/svg">
<path d="M20.5 4.25C20.8797 4.25 21.1935 4.53236 21.2432 4.89844L21.25 5V9C21.25 9.3797 20.9676 9.6935 20.6016 9.74316L20.5 9.75H19.75V19C19.75 19.3797 19.4676 19.6935 19.1016 19.7432L19 19.75H5C4.6203 19.75 4.3065 19.4676 4.25684 19.1016L4.25 19V9.75H3.5C3.1203 9.75 2.8065 9.46764 2.75684 9.10156L2.75 9V5C2.75 4.6203 3.03236 4.3065 3.39844 4.25684L3.5 4.25H20.5ZM5.75 18.25H18.25V9.75H5.75V18.25ZM15 12.75C15.4142 12.75 15.75 13.0858 15.75 13.5C15.75 13.8797 15.4676 14.1935 15.1016 14.2432L15 14.25H9C8.58579 14.25 8.25 13.9142 8.25 13.5C8.25 13.1203 8.53236 12.8065 8.89844 12.7568L9 12.75H15ZM4.25 8.25H19.75V5.75H4.25V8.25Z" fill="#222222"/>
<mask id="mask0_2971_5403" style="mask-type:luminance" maskUnits="userSpaceOnUse" x="0" y="0" width="24" height="24">
<rect width="24" height="24" fill="white"/>
</mask>
<g mask="url(#mask0_2971_5403)">
</g>
</svg>
