<svg width="24" height="24" viewBox="0 0 24 24" fill="none" xmlns="http://www.w3.org/2000/svg">
<path d="M18.091 8.2559C18.4678 8.30211 18.7454 8.61997 18.7502 8.9893L18.7443 9.09086L17.3517 20.4434C17.2506 21.2694 16.5848 21.902 15.7697 21.9737L15.6154 21.9805H8.38494C7.55277 21.9805 6.84322 21.3961 6.67303 20.5957L6.64764 20.4434L5.25604 9.09086C5.20585 8.67999 5.49756 8.30648 5.90838 8.2559C6.28525 8.20967 6.63093 8.45133 6.72479 8.80863L6.74432 8.90824L8.1369 20.2608C8.14968 20.3651 8.2255 20.4479 8.32342 20.4727L8.38494 20.4805H15.6154C15.7203 20.4804 15.8113 20.4153 15.8478 20.3213L15.8635 20.2608L17.256 8.90824C17.3025 8.53163 17.6202 8.25484 17.9894 8.25004L18.091 8.2559ZM14.8752 3.01469C15.7933 3.01478 16.5463 3.72183 16.6193 4.62113L16.6252 4.76469L16.6242 5.51469H20.0656C20.4798 5.51469 20.8156 5.85047 20.8156 6.26469C20.8156 6.64438 20.5332 6.95819 20.1672 7.00785L20.0656 7.01469H3.93768C3.52346 7.01469 3.18768 6.6789 3.18768 6.26469C3.18768 5.88499 3.47004 5.57118 3.83611 5.52152L3.93768 5.51469H7.3742L7.37518 4.76469C7.37518 3.84651 8.08226 3.09355 8.98162 3.02055L9.12518 3.01469H14.8752ZM9.12518 4.51469C9.00696 4.51469 8.90806 4.59681 8.88201 4.70707L8.87518 4.76469L8.8742 5.51469H15.1242L15.1252 4.76469C15.1252 4.64652 15.043 4.54761 14.9328 4.52152L14.8752 4.51469H9.12518Z" fill="black"/>
<mask id="mask0_2050_2999" style="mask-type:luminance" maskUnits="userSpaceOnUse" x="0" y="0" width="24" height="24">
<rect width="24" height="24" fill="white"/>
</mask>
<g mask="url(#mask0_2050_2999)">
</g>
</svg>
