<svg preserveAspectRatio="none" overflow="visible" style="display: block;" width="20" height="20" viewBox="0 0 20 20" fill="none" xmlns="http://www.w3.org/2000/svg">
<g id="icons/symbols/info/line">
<g id="Rectangle">
</g>
<path id="Shape" d="M9.99967 1.66667C14.6019 1.66667 18.3335 5.39745 18.3337 9.99967C18.3337 14.602 14.602 18.3337 9.99967 18.3337C5.39745 18.3335 1.66667 14.6019 1.66667 9.99967C1.66684 5.39756 5.39756 1.66684 9.99967 1.66667ZM9.99967 2.91667C6.08792 2.91684 2.91684 6.08792 2.91667 9.99967C2.91667 13.9116 6.08781 17.0835 9.99967 17.0837C13.9117 17.0837 17.0837 13.9117 17.0837 9.99967C17.0835 6.08781 13.9116 2.91667 9.99967 2.91667ZM9.99967 7.49967C10.3159 7.49967 10.5772 7.73491 10.6188 8.03971L10.6247 8.12467V12.4997H11.8747C12.2197 12.4997 12.4995 12.7796 12.4997 13.1247C12.4997 13.4411 12.2647 13.7024 11.9596 13.7438L11.8747 13.7497H8.12467C7.77964 13.7495 7.49967 13.4697 7.49967 13.1247C7.49984 12.8086 7.73497 12.5471 8.03971 12.5055L8.12467 12.4997H9.37467V8.7487L8.33366 8.74967C8.01725 8.74967 7.7559 8.5147 7.71452 8.20964L7.70866 8.12467C7.70882 7.80841 7.94374 7.5469 8.2487 7.50553L8.33366 7.49967H9.99967ZM9.79167 4.99967C10.2519 4.99967 10.6247 5.37343 10.6247 5.83366C10.6245 6.29375 10.2518 6.66667 9.79167 6.66667C9.33153 6.66667 8.95883 6.29375 8.95866 5.83366C8.95866 5.37343 9.33142 4.99967 9.79167 4.99967Z" fill="#888888"/>
</g>
</svg>
